# xmcd
#
# Track frame offsets: 
#        150
#        18725
#        27106
#        38592
#        70656
#        85014
#        97635
#        106886
#        124032
#        136553
#        151989
#        163360
#        171696
#        184767
#        198957
#        211229
#        221702
#        233629
#        249036
#        263692
#        274600
#        283978
#        292680
#
# Disc length: 4107 seconds
#
# Revision: 1
# Processed by: cddbd v1.5.2PL0 Copyright (c) Steve Scherf et al.
# Submitted via: ExactAudioCopy v0.99pb5
#
DISCID=34100917
DTITLE=Bob Dylan - The Dylan-Cash Sessions
DYEAR=1900
DGENRE=Country
TTITLE0=One Too Many Mornings
TTITLE1=Mountain Dew
TTITLE2=I Still Miss Someone
TTITLE3=Careless Love
TTITLE4=Matchbox
TTITLE5=That's Alright Mama
TTITLE6=Big River
TTITLE7=Girl From the North Country
TTITLE8=I Walk the Line
TTITLE9=You Are My Sunshine
TTITLE10=Ring of Fire
TTITLE11=Guess Things Happen That Way
TTITLE12=Just a Closer Walk With Thee
TTITLE13=Blue Yodel
TTITLE14=Blue Yodel No. 5
TTITLE15=I Threw It All Away
TTITLE16=Living the Blues
TTITLE17=Girl From the North Country (2)
TTITLE18=Nashville Skyline Rag
TTITLE19=I Threw It All Away (2)
TTITLE20=Peggy Day
TTITLE21=Country Pie
TTITLE22=Tonight I'll Be Staying Here With You
EXTD=Tracks 1-15 Dylan and Cash Studio Outtakes\n17-18 Feb. 1969, Columb
EXTD=ia Studios, Nashville\n\nTracks 16-18 Dylan on The Johnny Cash Sh
EXTD=ow\n1 May1969, Ryman Auditorium, Nashville\n\nTracks 19-23 Nashvi
EXTD=lle Skyline Quad Mixes\n13-14 Feb. 1969, Columbia Studios, Nashvi
EXTD=lle
EXTT0=
EXTT1=
EXTT2=
EXTT3=
EXTT4=
EXTT5=
EXTT6=
EXTT7=
EXTT8=
EXTT9=
EXTT10=
EXTT11=
EXTT12=
EXTT13=
EXTT14=
EXTT15=
EXTT16=
EXTT17=
EXTT18=
EXTT19=
EXTT20=
EXTT21=
EXTT22=
PLAYORDER=
